<?xml version="1.0" encoding="utf-8"?>
<svg version="1.1" width="12px" height="12px" viewBox="305 705  12 12" xmlns:xlink="http://www.w3.org/1999/xlink" xmlns="http://www.w3.org/2000/svg">
  <path d="M 311 705  C 314.36 705  317 707.64  317 711  C 317 714.36  314.36 717  311 717  C 307.64 717  305 714.36  305 711  C 305 707.64  307.64 705  311 705  Z " fill-rule="nonzero" fill="#ffffff" stroke="none" />
  <path d="M 311 705.5  C 314.08 705.5  316.5 707.92  316.5 711  C 316.5 714.08  314.08 716.5  311 716.5  C 307.92 716.5  305.5 714.08  305.5 711  C 305.5 707.92  307.92 705.5  311 705.5  Z " stroke-width="1" stroke="#797979" fill="none" />
  <path d="M 311 714  C 309.32 714  308 712.68  308 711  C 308 709.32  309.32 708  311 708  C 312.68 708  314 709.32  314 711  C 314 712.68  312.68 714  311 714  " fill-rule="nonzero" fill="#797979" stroke="none" />
</svg>