<?xml version="1.0" encoding="utf-8"?>
<svg version="1.1" width="1400px" height="100px" xmlns:xlink="http://www.w3.org/1999/xlink" xmlns="http://www.w3.org/2000/svg">
  <g transform="translate(0 -40 )">
    <path d="M 0 40  L 1400 40  L 1400 140  L 0 140  L 0 40  " fill-rule="nonzero" fill="#cccccc" stroke="none" />
    <path d="M 7 47  L 1393 47  L 1393 133  L 7 133  L 7 47  " fill-rule="nonzero" fill="#ffffff" stroke="none" />
    <path d="M 735.5 70  C 731.3 70  728 66.7  728 62.5  C 728 58.3  731.3 55  735.5 55  C 739.7 55  743 58.3  743 62.5  C 743 66.7  739.7 70  735.5 70  " fill-rule="nonzero" fill="#cccccc" stroke="none" />
    <path d="M 10 131  L 10 86.45  L 355.25 66.2  L 838.6 127.528571428571  L 1114.8 78.35  L 1391 127.528571428571  L 1391 131  L 10 131  " fill-rule="nonzero" fill="#169bd5" stroke="none" />
  </g>
</svg>