<?xml version="1.0" encoding="utf-8"?>
<svg version="1.1" width="12px" height="12px" viewBox="175 705  12 12" xmlns:xlink="http://www.w3.org/1999/xlink" xmlns="http://www.w3.org/2000/svg">
  <path d="M 181 705  C 184.36 705  187 707.64  187 711  C 187 714.36  184.36 717  181 717  C 177.64 717  175 714.36  175 711  C 175 707.64  177.64 705  181 705  Z " fill-rule="nonzero" fill="#ffffff" stroke="none" />
  <path d="M 181 705.5  C 184.08 705.5  186.5 707.92  186.5 711  C 186.5 714.08  184.08 716.5  181 716.5  C 177.92 716.5  175.5 714.08  175.5 711  C 175.5 707.92  177.92 705.5  181 705.5  Z " stroke-width="1" stroke="#797979" fill="none" />
  <path d="M 181 714  C 179.32 714  178 712.68  178 711  C 178 709.32  179.32 708  181 708  C 182.68 708  184 709.32  184 711  C 184 712.68  182.68 714  181 714  " fill-rule="nonzero" fill="#797979" stroke="none" />
</svg>