<?xml version="1.0" encoding="utf-8"?>
<svg version="1.1" width="12px" height="12px" viewBox="161 705  12 12" xmlns:xlink="http://www.w3.org/1999/xlink" xmlns="http://www.w3.org/2000/svg">
  <path d="M 167 705  C 170.36 705  173 707.64  173 711  C 173 714.36  170.36 717  167 717  C 163.64 717  161 714.36  161 711  C 161 707.64  163.64 705  167 705  Z " fill-rule="nonzero" fill="#ffffff" stroke="none" />
  <path d="M 167 705.5  C 170.08 705.5  172.5 707.92  172.5 711  C 172.5 714.08  170.08 716.5  167 716.5  C 163.92 716.5  161.5 714.08  161.5 711  C 161.5 707.92  163.92 705.5  167 705.5  Z " stroke-width="1" stroke="#797979" fill="none" />
  <path d="M 167 714  C 165.32 714  164 712.68  164 711  C 164 709.32  165.32 708  167 708  C 168.68 708  170 709.32  170 711  C 170 712.68  168.68 714  167 714  " fill-rule="nonzero" fill="#797979" stroke="none" />
</svg>