<?xml version="1.0" encoding="utf-8"?>
<svg version="1.1" width="12px" height="12px" viewBox="291 705  12 12" xmlns:xlink="http://www.w3.org/1999/xlink" xmlns="http://www.w3.org/2000/svg">
  <path d="M 297 705  C 300.36 705  303 707.64  303 711  C 303 714.36  300.36 717  297 717  C 293.64 717  291 714.36  291 711  C 291 707.64  293.64 705  297 705  Z " fill-rule="nonzero" fill="#ffffff" stroke="none" />
  <path d="M 297 705.5  C 300.08 705.5  302.5 707.92  302.5 711  C 302.5 714.08  300.08 716.5  297 716.5  C 293.92 716.5  291.5 714.08  291.5 711  C 291.5 707.92  293.92 705.5  297 705.5  Z " stroke-width="1" stroke="#797979" fill="none" />
  <path d="M 297 714  C 295.32 714  294 712.68  294 711  C 294 709.32  295.32 708  297 708  C 298.68 708  300 709.32  300 711  C 300 712.68  298.68 714  297 714  " fill-rule="nonzero" fill="#797979" stroke="none" />
</svg>